<svg width="33" height="33" viewBox="0 0 33 33" fill="none" xmlns="http://www.w3.org/2000/svg">
<g clip-path="url(#clip0_1_12)">
<path d="M16.5 0C7.40192 0 0 7.40181 0 16.4998C0 25.598 7.40192 33 16.5 33C25.5981 33 33 25.598 33 16.4998C33 7.40181 25.5982 0 16.5 0ZM16.5 31.0942C8.45274 31.0942 1.90575 24.5472 1.90575 16.4998C1.90575 8.45269 8.45274 1.90575 16.5 1.90575C24.5473 1.90575 31.0942 8.45269 31.0942 16.4999C31.0942 24.5473 24.5473 31.0942 16.5 31.0942Z"/>
<path d="M25.5841 7.80428C25.3349 7.3406 24.7572 7.16703 24.2936 7.4162L13.5688 13.183C13.4042 13.2715 13.2692 13.4065 13.1807 13.5711L7.41624 24.2936C7.2123 24.6729 7.29173 25.1288 7.5814 25.4185C7.64562 25.4828 7.72019 25.5388 7.80447 25.584C8.09096 25.7381 8.42112 25.7301 8.69029 25.5924L8.69046 25.5926L8.6945 25.5904C8.69838 25.5884 8.70221 25.5863 8.70604 25.5842L19.4362 19.8216C19.6008 19.7332 19.7358 19.5983 19.8244 19.4335L25.5658 8.7376C25.5784 8.71598 25.5903 8.69414 25.6011 8.67171L25.6089 8.65732L25.6079 8.65699C25.7299 8.39402 25.7319 8.07922 25.5841 7.80428ZM10.5903 22.4143L14.2534 15.6007L17.4034 18.7508L10.5903 22.4143ZM18.7517 17.4039L15.6016 14.2538L22.4146 10.5903"/>
</g>
<defs>
<clipPath id="clip0_1_12">
<rect width="33" height="33"/>
</clipPath>
</defs>
</svg>
