<svg width="33" height="33" viewBox="0 0 33 33" fill="none" xmlns="http://www.w3.org/2000/svg">
<g clip-path="url(#clip0_1_35)">
<path d="M10.6322 21.3342H10.6338C10.635 21.3342 10.6363 21.334 10.6375 21.334H28.166C28.5975 21.334 28.9769 21.0477 29.0955 20.6328L32.9627 7.09765C33.0461 6.80584 32.9876 6.49214 32.8051 6.24994C32.6223 6.00773 32.3366 5.86523 32.0332 5.86523H8.40257L7.71146 2.75512C7.61302 2.31276 7.22076 1.99805 6.76757 1.99805H0.966796C0.432792 1.99805 0 2.43084 0 2.96484C0 3.49885 0.432792 3.93164 0.966796 3.93164H5.99212C6.11448 4.48276 9.29937 18.815 9.48266 19.6396C8.45519 20.0862 7.73437 21.1107 7.73437 22.3008C7.73437 23.9 9.03552 25.2012 10.6348 25.2012H28.166C28.7 25.2012 29.1328 24.7684 29.1328 24.2344C29.1328 23.7004 28.7 23.2676 28.166 23.2676H10.6348C10.1018 23.2676 9.66796 22.8338 9.66796 22.3008C9.66796 21.7685 10.1003 21.3355 10.6322 21.3342ZM30.7514 7.79882L27.4366 19.4004H11.4102L8.83209 7.79882H30.7514Z"/>
<path d="M9.66797 28.1016C9.66797 29.7008 10.9691 31.0019 12.5684 31.0019C14.1676 31.0019 15.4687 29.7008 15.4687 28.1016C15.4687 26.5023 14.1676 25.2012 12.5684 25.2012C10.9691 25.2012 9.66797 26.5023 9.66797 28.1016ZM12.5684 27.1348C13.1014 27.1348 13.5352 27.5686 13.5352 28.1016C13.5352 28.6346 13.1014 29.0684 12.5684 29.0684C12.0354 29.0684 11.6016 28.6346 11.6016 28.1016C11.6016 27.5686 12.0354 27.1348 12.5684 27.1348Z" fill="white"/>
<path d="M23.332 28.1016C23.332 29.7008 24.6332 31.0019 26.2324 31.0019C27.8317 31.0019 29.1328 29.7008 29.1328 28.1016C29.1328 26.5023 27.8317 25.2012 26.2324 25.2012C24.6332 25.2012 23.332 26.5023 23.332 28.1016ZM26.2324 27.1348C26.7654 27.1348 27.1992 27.5686 27.1992 28.1016C27.1992 28.6346 26.7654 29.0684 26.2324 29.0684C25.6994 29.0684 25.2656 28.6346 25.2656 28.1016C25.2656 27.5686 25.6994 27.1348 26.2324 27.1348Z"/>
</g>
<defs>
<clipPath id="clip0_1_35">
<rect width="33" height="33"/>
</clipPath>
</defs>
</svg>
