<svg width="29" height="29" viewBox="0 0 29 29" fill="none" xmlns="http://www.w3.org/2000/svg">
<path d="M28.275 12.557C28.2742 12.5563 28.2735 12.5554 28.2728 12.5548L16.4431 0.725488C15.9389 0.221032 15.2685 -0.0566406 14.5554 -0.0566406C13.8423 -0.0566406 13.1719 0.221032 12.6674 0.725488L0.843888 12.5488C0.839906 12.5528 0.835702 12.557 0.83194 12.561C-0.203523 13.6024 -0.201753 15.2921 0.837029 16.3309C1.31162 16.8057 1.9382 17.0805 2.60838 17.1095C2.63582 17.1121 2.66325 17.1135 2.69091 17.1135H3.16218V25.8189C3.16218 27.5418 4.56403 28.9434 6.28693 28.9434H10.9151C11.3844 28.9434 11.7647 28.5629 11.7647 28.0938V21.2686C11.7647 20.4825 12.4044 19.8431 13.1905 19.8431H15.9203C16.7064 19.8431 17.3458 20.4825 17.3458 21.2686V28.0938C17.3458 28.5629 17.7261 28.9434 18.1954 28.9434H22.8236C24.5467 28.9434 25.9483 27.5418 25.9483 25.8189V17.1135H26.3855C27.0984 17.1135 27.7688 16.8358 28.2735 16.3311C29.3134 15.2908 29.3138 13.598 28.275 12.557ZM27.0719 15.1297C26.8884 15.3131 26.6446 15.4142 26.3855 15.4142H25.0987C24.6295 15.4142 24.2491 15.7946 24.2491 16.2639V25.8189C24.2491 26.6048 23.6097 27.2442 22.8236 27.2442H19.045V21.2686C19.045 19.5457 17.6434 18.1438 15.9203 18.1438H13.1905C11.4673 18.1438 10.0655 19.5457 10.0655 21.2686V27.2442H6.28693C5.50104 27.2442 4.8614 26.6048 4.8614 25.8189V16.2639C4.8614 15.7946 4.48106 15.4142 4.01179 15.4142H2.74711C2.73383 15.4134 2.72078 15.4127 2.70728 15.4125C2.45417 15.4081 2.21676 15.3076 2.03887 15.1295C1.66053 14.7512 1.66053 14.1354 2.03887 13.7568C2.0391 13.7568 2.0391 13.7566 2.03932 13.7564L2.03998 13.7557L13.8693 1.92689C14.0525 1.74347 14.2961 1.64258 14.5554 1.64258C14.8145 1.64258 15.0581 1.74347 15.2415 1.92689L27.0681 13.7533C27.0699 13.7551 27.0719 13.7568 27.0736 13.7586C27.45 14.1376 27.4493 14.752 27.0719 15.1297Z" fill="#fff"/>
</svg>
